<svg width="50" height="50" viewBox="0 0 50 50" xmlns="http://www.w3.org/2000/svg">
<path fill-rule="evenodd" clip-rule="evenodd" d="M4.35705 29.4098C3.43028 24.4172 4.25931 19.2463 6.69942 14.8168C9.13939 10.3875 13.0288 6.99227 17.6717 5.22749C18.4406 4.9352 18.8219 4.06688 18.5231 3.28804C18.2244 2.5092 17.3589 2.11478 16.5899 2.40708C11.2865 4.42295 6.85803 8.29505 4.08391 13.3309C1.30993 18.3665 0.365627 24.2467 1.42081 29.9311C2.47611 35.6162 5.46438 40.7425 9.86356 44.3956C14.2633 48.0491 19.7853 49.9887 25.4481 49.8694C31.1103 49.7501 36.5408 47.5805 40.7796 43.7543C45.0178 39.9286 47.794 34.6915 48.6196 28.9718C49.4451 23.2518 48.2675 17.4112 45.2875 12.4864C42.307 7.56072 37.7165 3.87067 32.3275 2.07685C31.5415 1.81521 30.7012 2.24325 30.4508 3.03291C30.2003 3.82257 30.6345 4.67483 31.4205 4.93647C36.1212 6.50116 40.1331 9.72199 42.7421 14.0338C45.3517 18.3465 46.3894 23.4729 45.6632 28.5044C44.9369 33.5362 42.4945 38.1401 38.7729 41.4995C35.0519 44.8583 30.2958 46.7534 25.3514 46.8576C20.4076 46.9617 15.5885 45.2692 11.7468 42.079C7.90454 38.8884 5.28369 34.4018 4.35705 29.4098ZM23.2236 26.6311C23.2236 27.4595 23.8951 28.1311 24.7236 28.1311C25.552 28.1311 26.2236 27.4595 26.2236 26.6311V3.63331C26.2236 2.80488 25.552 2.13331 24.7236 2.13331C23.8951 2.13331 23.2236 2.80488 23.2236 3.63331V26.6311Z" fill="black"/>
</svg>
