<svg width="200" height="200" viewBox="0 0 200 200" fill="none" xmlns="http://www.w3.org/2000/svg">
<path d="M50 5H150V105H50V5Z" fill="#F7DF1E"/>
<path d="M76.2937 88.5672L83.9461 83.9359C85.4227 86.5535 86.7656 88.7684 89.9871 88.7684C93.075 88.7684 95.0223 87.5605 95.0223 82.8621V50.9098H104.42V82.9949C104.42 92.7281 98.7141 97.1586 90.3898 97.1586C82.8723 97.1586 78.5086 93.2652 76.2934 88.5664" fill="black"/>
<path d="M109.524 87.5602L117.175 83.1301C119.19 86.4195 121.808 88.8359 126.439 88.8359C130.333 88.8359 132.816 86.8891 132.816 84.2039C132.816 80.982 130.265 79.8406 125.969 77.9617L123.62 76.9539C116.84 74.0684 112.343 70.4434 112.343 62.791C112.343 55.7426 117.713 50.3723 126.104 50.3723C132.078 50.3723 136.374 52.4535 139.462 57.8906L132.145 62.5898C130.533 59.7035 128.789 58.5625 126.104 58.5625C123.351 58.5625 121.606 60.3078 121.606 62.5898C121.606 65.409 123.351 66.5508 127.379 68.2961L129.728 69.3027C137.716 72.7266 142.213 76.2168 142.213 84.0699C142.213 92.5285 135.568 97.1598 126.64 97.1598C117.914 97.1598 112.275 92.998 109.523 87.5605" fill="black"/>
<path d="M81.9648 124.08V125H77.4473V124.08H81.9648ZM77.6758 116.469V125H76.5449V116.469H77.6758ZM81.3672 120.137V121.057H77.4473V120.137H81.3672ZM81.9062 116.469V117.395H77.4473V116.469H81.9062ZM86.8926 123.318C86.8926 123.162 86.8574 123.018 86.7871 122.885C86.7207 122.748 86.582 122.625 86.3711 122.516C86.1641 122.402 85.8516 122.305 85.4336 122.223C85.082 122.148 84.7637 122.061 84.4785 121.959C84.1973 121.857 83.957 121.734 83.7578 121.59C83.5625 121.445 83.4121 121.275 83.3066 121.08C83.2012 120.885 83.1484 120.656 83.1484 120.395C83.1484 120.145 83.2031 119.908 83.3125 119.686C83.4258 119.463 83.584 119.266 83.7871 119.094C83.9941 118.922 84.2422 118.787 84.5312 118.689C84.8203 118.592 85.1426 118.543 85.498 118.543C86.0059 118.543 86.4395 118.633 86.7988 118.812C87.1582 118.992 87.4336 119.232 87.625 119.533C87.8164 119.83 87.9121 120.16 87.9121 120.523H86.8281C86.8281 120.348 86.7754 120.178 86.6699 120.014C86.5684 119.846 86.418 119.707 86.2188 119.598C86.0234 119.488 85.7832 119.434 85.498 119.434C85.1973 119.434 84.9531 119.48 84.7656 119.574C84.582 119.664 84.4473 119.779 84.3613 119.92C84.2793 120.061 84.2383 120.209 84.2383 120.365C84.2383 120.482 84.2578 120.588 84.2969 120.682C84.3398 120.771 84.4141 120.855 84.5195 120.934C84.625 121.008 84.7734 121.078 84.9648 121.145C85.1562 121.211 85.4004 121.277 85.6973 121.344C86.2168 121.461 86.6445 121.602 86.9805 121.766C87.3164 121.93 87.5664 122.131 87.7305 122.369C87.8945 122.607 87.9766 122.896 87.9766 123.236C87.9766 123.514 87.918 123.768 87.8008 123.998C87.6875 124.229 87.5215 124.428 87.3027 124.596C87.0879 124.76 86.8301 124.889 86.5293 124.982C86.2324 125.072 85.8984 125.117 85.5273 125.117C84.9688 125.117 84.4961 125.018 84.1094 124.818C83.7227 124.619 83.4297 124.361 83.2305 124.045C83.0312 123.729 82.9316 123.395 82.9316 123.043H84.0215C84.0371 123.34 84.123 123.576 84.2793 123.752C84.4355 123.924 84.627 124.047 84.8535 124.121C85.0801 124.191 85.3047 124.227 85.5273 124.227C85.8242 124.227 86.0723 124.188 86.2715 124.109C86.4746 124.031 86.6289 123.924 86.7344 123.787C86.8398 123.65 86.8926 123.494 86.8926 123.318ZM93.0918 123.318C93.0918 123.162 93.0566 123.018 92.9863 122.885C92.9199 122.748 92.7812 122.625 92.5703 122.516C92.3633 122.402 92.0508 122.305 91.6328 122.223C91.2812 122.148 90.9629 122.061 90.6777 121.959C90.3965 121.857 90.1562 121.734 89.957 121.59C89.7617 121.445 89.6113 121.275 89.5059 121.08C89.4004 120.885 89.3477 120.656 89.3477 120.395C89.3477 120.145 89.4023 119.908 89.5117 119.686C89.625 119.463 89.7832 119.266 89.9863 119.094C90.1934 118.922 90.4414 118.787 90.7305 118.689C91.0195 118.592 91.3418 118.543 91.6973 118.543C92.2051 118.543 92.6387 118.633 92.998 118.812C93.3574 118.992 93.6328 119.232 93.8242 119.533C94.0156 119.83 94.1113 120.16 94.1113 120.523H93.0273C93.0273 120.348 92.9746 120.178 92.8691 120.014C92.7676 119.846 92.6172 119.707 92.418 119.598C92.2227 119.488 91.9824 119.434 91.6973 119.434C91.3965 119.434 91.1523 119.48 90.9648 119.574C90.7812 119.664 90.6465 119.779 90.5605 119.92C90.4785 120.061 90.4375 120.209 90.4375 120.365C90.4375 120.482 90.457 120.588 90.4961 120.682C90.5391 120.771 90.6133 120.855 90.7188 120.934C90.8242 121.008 90.9727 121.078 91.1641 121.145C91.3555 121.211 91.5996 121.277 91.8965 121.344C92.416 121.461 92.8438 121.602 93.1797 121.766C93.5156 121.93 93.7656 122.131 93.9297 122.369C94.0938 122.607 94.1758 122.896 94.1758 123.236C94.1758 123.514 94.1172 123.768 94 123.998C93.8867 124.229 93.7207 124.428 93.502 124.596C93.2871 124.76 93.0293 124.889 92.7285 124.982C92.4316 125.072 92.0977 125.117 91.7266 125.117C91.168 125.117 90.6953 125.018 90.3086 124.818C89.9219 124.619 89.6289 124.361 89.4297 124.045C89.2305 123.729 89.1309 123.395 89.1309 123.043H90.2207C90.2363 123.34 90.3223 123.576 90.4785 123.752C90.6348 123.924 90.8262 124.047 91.0527 124.121C91.2793 124.191 91.5039 124.227 91.7266 124.227C92.0234 124.227 92.2715 124.188 92.4707 124.109C92.6738 124.031 92.8281 123.924 92.9336 123.787C93.0391 123.65 93.0918 123.494 93.0918 123.318ZM98.2305 125.117C97.7891 125.117 97.3887 125.043 97.0293 124.895C96.6738 124.742 96.3672 124.529 96.1094 124.256C95.8555 123.982 95.6602 123.658 95.5234 123.283C95.3867 122.908 95.3184 122.498 95.3184 122.053V121.807C95.3184 121.291 95.3945 120.832 95.5469 120.43C95.6992 120.023 95.9062 119.68 96.168 119.398C96.4297 119.117 96.7266 118.904 97.0586 118.76C97.3906 118.615 97.7344 118.543 98.0898 118.543C98.543 118.543 98.9336 118.621 99.2617 118.777C99.5938 118.934 99.8652 119.152 100.076 119.434C100.287 119.711 100.443 120.039 100.545 120.418C100.646 120.793 100.697 121.203 100.697 121.648V122.135H95.9629V121.25H99.6133V121.168C99.5977 120.887 99.5391 120.613 99.4375 120.348C99.3398 120.082 99.1836 119.863 98.9688 119.691C98.7539 119.52 98.4609 119.434 98.0898 119.434C97.8438 119.434 97.6172 119.486 97.4102 119.592C97.2031 119.693 97.0254 119.846 96.877 120.049C96.7285 120.252 96.6133 120.5 96.5312 120.793C96.4492 121.086 96.4082 121.424 96.4082 121.807V122.053C96.4082 122.354 96.4492 122.637 96.5312 122.902C96.6172 123.164 96.7402 123.395 96.9004 123.594C97.0645 123.793 97.2617 123.949 97.4922 124.062C97.7266 124.176 97.9922 124.232 98.2891 124.232C98.6719 124.232 98.9961 124.154 99.2617 123.998C99.5273 123.842 99.7598 123.633 99.959 123.371L100.615 123.893C100.479 124.1 100.305 124.297 100.094 124.484C99.8828 124.672 99.623 124.824 99.3145 124.941C99.0098 125.059 98.6484 125.117 98.2305 125.117ZM109.65 122.844C109.65 122.645 109.619 122.469 109.557 122.316C109.498 122.16 109.393 122.02 109.24 121.895C109.092 121.77 108.885 121.65 108.619 121.537C108.357 121.424 108.025 121.309 107.623 121.191C107.201 121.066 106.82 120.928 106.48 120.775C106.141 120.619 105.85 120.441 105.607 120.242C105.365 120.043 105.18 119.814 105.051 119.557C104.922 119.299 104.857 119.004 104.857 118.672C104.857 118.34 104.926 118.033 105.062 117.752C105.199 117.471 105.395 117.227 105.648 117.02C105.906 116.809 106.213 116.645 106.568 116.527C106.924 116.41 107.32 116.352 107.758 116.352C108.398 116.352 108.941 116.475 109.387 116.721C109.836 116.963 110.178 117.281 110.412 117.676C110.646 118.066 110.764 118.484 110.764 118.93H109.639C109.639 118.609 109.57 118.326 109.434 118.08C109.297 117.83 109.09 117.635 108.812 117.494C108.535 117.35 108.184 117.277 107.758 117.277C107.355 117.277 107.023 117.338 106.762 117.459C106.5 117.58 106.305 117.744 106.176 117.951C106.051 118.158 105.988 118.395 105.988 118.66C105.988 118.84 106.025 119.004 106.1 119.152C106.178 119.297 106.297 119.432 106.457 119.557C106.621 119.682 106.828 119.797 107.078 119.902C107.332 120.008 107.635 120.109 107.986 120.207C108.471 120.344 108.889 120.496 109.24 120.664C109.592 120.832 109.881 121.021 110.107 121.232C110.338 121.439 110.508 121.676 110.617 121.941C110.73 122.203 110.787 122.5 110.787 122.832C110.787 123.18 110.717 123.494 110.576 123.775C110.436 124.057 110.234 124.297 109.973 124.496C109.711 124.695 109.396 124.85 109.029 124.959C108.666 125.064 108.26 125.117 107.811 125.117C107.416 125.117 107.027 125.062 106.645 124.953C106.266 124.844 105.92 124.68 105.607 124.461C105.299 124.242 105.051 123.973 104.863 123.652C104.68 123.328 104.588 122.953 104.588 122.527H105.713C105.713 122.82 105.77 123.072 105.883 123.283C105.996 123.49 106.15 123.662 106.346 123.799C106.545 123.936 106.77 124.037 107.02 124.104C107.273 124.166 107.537 124.197 107.811 124.197C108.205 124.197 108.539 124.143 108.812 124.033C109.086 123.924 109.293 123.768 109.434 123.564C109.578 123.361 109.65 123.121 109.65 122.844ZM113.242 118.66V125H112.152V118.66H113.242ZM112.07 116.979C112.07 116.803 112.123 116.654 112.229 116.533C112.338 116.412 112.498 116.352 112.709 116.352C112.916 116.352 113.074 116.412 113.184 116.533C113.297 116.654 113.354 116.803 113.354 116.979C113.354 117.146 113.297 117.291 113.184 117.412C113.074 117.529 112.916 117.588 112.709 117.588C112.498 117.588 112.338 117.529 112.229 117.412C112.123 117.291 112.07 117.146 112.07 116.979ZM117.637 118.66V119.492H114.209V118.66H117.637ZM115.369 117.119H116.453V123.43C116.453 123.645 116.486 123.807 116.553 123.916C116.619 124.025 116.705 124.098 116.811 124.133C116.916 124.168 117.029 124.186 117.15 124.186C117.24 124.186 117.334 124.178 117.432 124.162C117.533 124.143 117.609 124.127 117.66 124.115L117.666 125C117.58 125.027 117.467 125.053 117.326 125.076C117.189 125.104 117.023 125.117 116.828 125.117C116.562 125.117 116.318 125.064 116.096 124.959C115.873 124.854 115.695 124.678 115.562 124.432C115.434 124.182 115.369 123.846 115.369 123.424V117.119ZM121.539 125.117C121.098 125.117 120.697 125.043 120.338 124.895C119.982 124.742 119.676 124.529 119.418 124.256C119.164 123.982 118.969 123.658 118.832 123.283C118.695 122.908 118.627 122.498 118.627 122.053V121.807C118.627 121.291 118.703 120.832 118.855 120.43C119.008 120.023 119.215 119.68 119.477 119.398C119.738 119.117 120.035 118.904 120.367 118.76C120.699 118.615 121.043 118.543 121.398 118.543C121.852 118.543 122.242 118.621 122.57 118.777C122.902 118.934 123.174 119.152 123.385 119.434C123.596 119.711 123.752 120.039 123.854 120.418C123.955 120.793 124.006 121.203 124.006 121.648V122.135H119.271V121.25H122.922V121.168C122.906 120.887 122.848 120.613 122.746 120.348C122.648 120.082 122.492 119.863 122.277 119.691C122.062 119.52 121.77 119.434 121.398 119.434C121.152 119.434 120.926 119.486 120.719 119.592C120.512 119.693 120.334 119.846 120.186 120.049C120.037 120.252 119.922 120.5 119.84 120.793C119.758 121.086 119.717 121.424 119.717 121.807V122.053C119.717 122.354 119.758 122.637 119.84 122.902C119.926 123.164 120.049 123.395 120.209 123.594C120.373 123.793 120.57 123.949 120.801 124.062C121.035 124.176 121.301 124.232 121.598 124.232C121.98 124.232 122.305 124.154 122.57 123.998C122.836 123.842 123.068 123.633 123.268 123.371L123.924 123.893C123.787 124.1 123.613 124.297 123.402 124.484C123.191 124.672 122.932 124.824 122.623 124.941C122.318 125.059 121.957 125.117 121.539 125.117ZM74.125 133.879V141.438H73.0352V132.66H74.0312L74.125 133.879ZM78.3965 135.777V135.9C78.3965 136.361 78.3418 136.789 78.2324 137.184C78.123 137.574 77.9629 137.914 77.752 138.203C77.5449 138.492 77.2891 138.717 76.9844 138.877C76.6797 139.037 76.3301 139.117 75.9355 139.117C75.5332 139.117 75.1777 139.051 74.8691 138.918C74.5605 138.785 74.2988 138.592 74.084 138.338C73.8691 138.084 73.6973 137.779 73.5684 137.424C73.4434 137.068 73.3574 136.668 73.3105 136.223V135.566C73.3574 135.098 73.4453 134.678 73.5742 134.307C73.7031 133.936 73.873 133.619 74.084 133.357C74.2988 133.092 74.5586 132.891 74.8633 132.754C75.168 132.613 75.5195 132.543 75.918 132.543C76.3164 132.543 76.6699 132.621 76.9785 132.777C77.2871 132.93 77.5469 133.148 77.7578 133.434C77.9688 133.719 78.127 134.061 78.2324 134.459C78.3418 134.854 78.3965 135.293 78.3965 135.777ZM77.3066 135.9V135.777C77.3066 135.461 77.2734 135.164 77.207 134.887C77.1406 134.605 77.0371 134.359 76.8965 134.148C76.7598 133.934 76.584 133.766 76.3691 133.645C76.1543 133.52 75.8984 133.457 75.6016 133.457C75.3281 133.457 75.0898 133.504 74.8867 133.598C74.6875 133.691 74.5176 133.818 74.377 133.979C74.2363 134.135 74.1211 134.314 74.0312 134.518C73.9453 134.717 73.8809 134.924 73.8379 135.139V136.656C73.916 136.93 74.0254 137.188 74.166 137.43C74.3066 137.668 74.4941 137.861 74.7285 138.01C74.9629 138.154 75.2578 138.227 75.6133 138.227C75.9062 138.227 76.1582 138.166 76.3691 138.045C76.584 137.92 76.7598 137.75 76.8965 137.535C77.0371 137.32 77.1406 137.074 77.207 136.797C77.2734 136.516 77.3066 136.217 77.3066 135.9ZM80.8633 133.656V139H79.7793V132.66H80.834L80.8633 133.656ZM82.8438 132.625L82.8379 133.633C82.748 133.613 82.6621 133.602 82.5801 133.598C82.502 133.59 82.4121 133.586 82.3105 133.586C82.0605 133.586 81.8398 133.625 81.6484 133.703C81.457 133.781 81.2949 133.891 81.1621 134.031C81.0293 134.172 80.9238 134.34 80.8457 134.535C80.7715 134.727 80.7227 134.938 80.6992 135.168L80.3945 135.344C80.3945 134.961 80.4316 134.602 80.5059 134.266C80.584 133.93 80.7031 133.633 80.8633 133.375C81.0234 133.113 81.2266 132.91 81.4727 132.766C81.7227 132.617 82.0195 132.543 82.3633 132.543C82.4414 132.543 82.5312 132.553 82.6328 132.572C82.7344 132.588 82.8047 132.605 82.8438 132.625ZM86.3594 139.117C85.918 139.117 85.5176 139.043 85.1582 138.895C84.8027 138.742 84.4961 138.529 84.2383 138.256C83.9844 137.982 83.7891 137.658 83.6523 137.283C83.5156 136.908 83.4473 136.498 83.4473 136.053V135.807C83.4473 135.291 83.5234 134.832 83.6758 134.43C83.8281 134.023 84.0352 133.68 84.2969 133.398C84.5586 133.117 84.8555 132.904 85.1875 132.76C85.5195 132.615 85.8633 132.543 86.2188 132.543C86.6719 132.543 87.0625 132.621 87.3906 132.777C87.7227 132.934 87.9941 133.152 88.2051 133.434C88.416 133.711 88.5723 134.039 88.6738 134.418C88.7754 134.793 88.8262 135.203 88.8262 135.648V136.135H84.0918V135.25H87.7422V135.168C87.7266 134.887 87.668 134.613 87.5664 134.348C87.4688 134.082 87.3125 133.863 87.0977 133.691C86.8828 133.52 86.5898 133.434 86.2188 133.434C85.9727 133.434 85.7461 133.486 85.5391 133.592C85.332 133.693 85.1543 133.846 85.0059 134.049C84.8574 134.252 84.7422 134.5 84.6602 134.793C84.5781 135.086 84.5371 135.424 84.5371 135.807V136.053C84.5371 136.354 84.5781 136.637 84.6602 136.902C84.7461 137.164 84.8691 137.395 85.0293 137.594C85.1934 137.793 85.3906 137.949 85.6211 138.062C85.8555 138.176 86.1211 138.232 86.418 138.232C86.8008 138.232 87.125 138.154 87.3906 137.998C87.6562 137.842 87.8887 137.633 88.0879 137.371L88.7441 137.893C88.6074 138.1 88.4336 138.297 88.2227 138.484C88.0117 138.672 87.752 138.824 87.4434 138.941C87.1387 139.059 86.7773 139.117 86.3594 139.117ZM92.6289 138.227C92.8867 138.227 93.125 138.174 93.3438 138.068C93.5625 137.963 93.7422 137.818 93.8828 137.635C94.0234 137.447 94.1035 137.234 94.123 136.996H95.1543C95.1348 137.371 95.0078 137.721 94.7734 138.045C94.543 138.365 94.2402 138.625 93.8652 138.824C93.4902 139.02 93.0781 139.117 92.6289 139.117C92.1523 139.117 91.7363 139.033 91.3809 138.865C91.0293 138.697 90.7363 138.467 90.502 138.174C90.2715 137.881 90.0977 137.545 89.9805 137.166C89.8672 136.783 89.8105 136.379 89.8105 135.953V135.707C89.8105 135.281 89.8672 134.879 89.9805 134.5C90.0977 134.117 90.2715 133.779 90.502 133.486C90.7363 133.193 91.0293 132.963 91.3809 132.795C91.7363 132.627 92.1523 132.543 92.6289 132.543C93.125 132.543 93.5586 132.645 93.9297 132.848C94.3008 133.047 94.5918 133.32 94.8027 133.668C95.0176 134.012 95.1348 134.402 95.1543 134.84H94.123C94.1035 134.578 94.0293 134.342 93.9004 134.131C93.7754 133.92 93.6035 133.752 93.3848 133.627C93.1699 133.498 92.918 133.434 92.6289 133.434C92.2969 133.434 92.0176 133.5 91.791 133.633C91.5684 133.762 91.3906 133.938 91.2578 134.16C91.1289 134.379 91.0352 134.623 90.9766 134.893C90.9219 135.158 90.8945 135.43 90.8945 135.707V135.953C90.8945 136.23 90.9219 136.504 90.9766 136.773C91.0312 137.043 91.123 137.287 91.252 137.506C91.3848 137.725 91.5625 137.9 91.7852 138.033C92.0117 138.162 92.293 138.227 92.6289 138.227ZM97.5508 132.66V139H96.4609V132.66H97.5508ZM96.3789 130.979C96.3789 130.803 96.4316 130.654 96.5371 130.533C96.6465 130.412 96.8066 130.352 97.0176 130.352C97.2246 130.352 97.3828 130.412 97.4922 130.533C97.6055 130.654 97.6621 130.803 97.6621 130.979C97.6621 131.146 97.6055 131.291 97.4922 131.412C97.3828 131.529 97.2246 131.588 97.0176 131.588C96.8066 131.588 96.6465 131.529 96.5371 131.412C96.4316 131.291 96.3789 131.146 96.3789 130.979ZM102.982 137.318C102.982 137.162 102.947 137.018 102.877 136.885C102.811 136.748 102.672 136.625 102.461 136.516C102.254 136.402 101.941 136.305 101.523 136.223C101.172 136.148 100.854 136.061 100.568 135.959C100.287 135.857 100.047 135.734 99.8477 135.59C99.6523 135.445 99.502 135.275 99.3965 135.08C99.291 134.885 99.2383 134.656 99.2383 134.395C99.2383 134.145 99.293 133.908 99.4023 133.686C99.5156 133.463 99.6738 133.266 99.877 133.094C100.084 132.922 100.332 132.787 100.621 132.689C100.91 132.592 101.232 132.543 101.588 132.543C102.096 132.543 102.529 132.633 102.889 132.812C103.248 132.992 103.523 133.232 103.715 133.533C103.906 133.83 104.002 134.16 104.002 134.523H102.918C102.918 134.348 102.865 134.178 102.76 134.014C102.658 133.846 102.508 133.707 102.309 133.598C102.113 133.488 101.873 133.434 101.588 133.434C101.287 133.434 101.043 133.48 100.855 133.574C100.672 133.664 100.537 133.779 100.451 133.92C100.369 134.061 100.328 134.209 100.328 134.365C100.328 134.482 100.348 134.588 100.387 134.682C100.43 134.771 100.504 134.855 100.609 134.934C100.715 135.008 100.863 135.078 101.055 135.145C101.246 135.211 101.49 135.277 101.787 135.344C102.307 135.461 102.734 135.602 103.07 135.766C103.406 135.93 103.656 136.131 103.82 136.369C103.984 136.607 104.066 136.896 104.066 137.236C104.066 137.514 104.008 137.768 103.891 137.998C103.777 138.229 103.611 138.428 103.393 138.596C103.178 138.76 102.92 138.889 102.619 138.982C102.322 139.072 101.988 139.117 101.617 139.117C101.059 139.117 100.586 139.018 100.199 138.818C99.8125 138.619 99.5195 138.361 99.3203 138.045C99.1211 137.729 99.0215 137.395 99.0215 137.043H100.111C100.127 137.34 100.213 137.576 100.369 137.752C100.525 137.924 100.717 138.047 100.943 138.121C101.17 138.191 101.395 138.227 101.617 138.227C101.914 138.227 102.162 138.188 102.361 138.109C102.564 138.031 102.719 137.924 102.824 137.787C102.93 137.65 102.982 137.494 102.982 137.318ZM109.229 137.916V134.652C109.229 134.402 109.178 134.186 109.076 134.002C108.979 133.814 108.83 133.67 108.631 133.568C108.432 133.467 108.186 133.416 107.893 133.416C107.619 133.416 107.379 133.463 107.172 133.557C106.969 133.65 106.809 133.773 106.691 133.926C106.578 134.078 106.521 134.242 106.521 134.418H105.438C105.438 134.191 105.496 133.967 105.613 133.744C105.73 133.521 105.898 133.32 106.117 133.141C106.34 132.957 106.605 132.812 106.914 132.707C107.227 132.598 107.574 132.543 107.957 132.543C108.418 132.543 108.824 132.621 109.176 132.777C109.531 132.934 109.809 133.17 110.008 133.486C110.211 133.799 110.312 134.191 110.312 134.664V137.617C110.312 137.828 110.33 138.053 110.365 138.291C110.404 138.529 110.461 138.734 110.535 138.906V139H109.404C109.35 138.875 109.307 138.709 109.275 138.502C109.244 138.291 109.229 138.096 109.229 137.916ZM109.416 135.156L109.428 135.918H108.332C108.023 135.918 107.748 135.943 107.506 135.994C107.264 136.041 107.061 136.113 106.896 136.211C106.732 136.309 106.607 136.432 106.521 136.58C106.436 136.725 106.393 136.895 106.393 137.09C106.393 137.289 106.438 137.471 106.527 137.635C106.617 137.799 106.752 137.93 106.932 138.027C107.115 138.121 107.34 138.168 107.605 138.168C107.938 138.168 108.23 138.098 108.484 137.957C108.738 137.816 108.939 137.645 109.088 137.441C109.24 137.238 109.322 137.041 109.334 136.85L109.797 137.371C109.77 137.535 109.695 137.717 109.574 137.916C109.453 138.115 109.291 138.307 109.088 138.49C108.889 138.67 108.65 138.82 108.373 138.941C108.1 139.059 107.791 139.117 107.447 139.117C107.018 139.117 106.641 139.033 106.316 138.865C105.996 138.697 105.746 138.473 105.566 138.191C105.391 137.906 105.303 137.588 105.303 137.236C105.303 136.896 105.369 136.598 105.502 136.34C105.635 136.078 105.826 135.861 106.076 135.689C106.326 135.514 106.627 135.381 106.979 135.291C107.33 135.201 107.723 135.156 108.156 135.156H109.416ZM118.99 137.77V130H120.08V139H119.084L118.99 137.77ZM114.725 135.9V135.777C114.725 135.293 114.783 134.854 114.9 134.459C115.021 134.061 115.191 133.719 115.41 133.434C115.633 133.148 115.896 132.93 116.201 132.777C116.51 132.621 116.854 132.543 117.232 132.543C117.631 132.543 117.979 132.613 118.275 132.754C118.576 132.891 118.83 133.092 119.037 133.357C119.248 133.619 119.414 133.936 119.535 134.307C119.656 134.678 119.74 135.098 119.787 135.566V136.105C119.744 136.57 119.66 136.988 119.535 137.359C119.414 137.73 119.248 138.047 119.037 138.309C118.83 138.57 118.576 138.771 118.275 138.912C117.975 139.049 117.623 139.117 117.221 139.117C116.85 139.117 116.51 139.037 116.201 138.877C115.896 138.717 115.633 138.492 115.41 138.203C115.191 137.914 115.021 137.574 114.9 137.184C114.783 136.789 114.725 136.361 114.725 135.9ZM115.814 135.777V135.9C115.814 136.217 115.846 136.514 115.908 136.791C115.975 137.068 116.076 137.312 116.213 137.523C116.35 137.734 116.523 137.9 116.734 138.021C116.945 138.139 117.197 138.197 117.49 138.197C117.85 138.197 118.145 138.121 118.375 137.969C118.609 137.816 118.797 137.615 118.938 137.365C119.078 137.115 119.188 136.844 119.266 136.551V135.139C119.219 134.924 119.15 134.717 119.061 134.518C118.975 134.314 118.861 134.135 118.721 133.979C118.584 133.818 118.414 133.691 118.211 133.598C118.012 133.504 117.775 133.457 117.502 133.457C117.205 133.457 116.949 133.52 116.734 133.645C116.523 133.766 116.35 133.934 116.213 134.148C116.076 134.359 115.975 134.605 115.908 134.887C115.846 135.164 115.814 135.461 115.814 135.777ZM121.48 135.9V135.766C121.48 135.309 121.547 134.885 121.68 134.494C121.812 134.1 122.004 133.758 122.254 133.469C122.504 133.176 122.807 132.949 123.162 132.789C123.518 132.625 123.916 132.543 124.357 132.543C124.803 132.543 125.203 132.625 125.559 132.789C125.918 132.949 126.223 133.176 126.473 133.469C126.727 133.758 126.92 134.1 127.053 134.494C127.186 134.885 127.252 135.309 127.252 135.766V135.9C127.252 136.357 127.186 136.781 127.053 137.172C126.92 137.562 126.727 137.904 126.473 138.197C126.223 138.486 125.92 138.713 125.564 138.877C125.213 139.037 124.814 139.117 124.369 139.117C123.924 139.117 123.523 139.037 123.168 138.877C122.812 138.713 122.508 138.486 122.254 138.197C122.004 137.904 121.812 137.562 121.68 137.172C121.547 136.781 121.48 136.357 121.48 135.9ZM122.564 135.766V135.9C122.564 136.217 122.602 136.516 122.676 136.797C122.75 137.074 122.861 137.32 123.01 137.535C123.162 137.75 123.352 137.92 123.578 138.045C123.805 138.166 124.068 138.227 124.369 138.227C124.666 138.227 124.926 138.166 125.148 138.045C125.375 137.92 125.562 137.75 125.711 137.535C125.859 137.32 125.971 137.074 126.045 136.797C126.123 136.516 126.162 136.217 126.162 135.9V135.766C126.162 135.453 126.123 135.158 126.045 134.881C125.971 134.6 125.857 134.352 125.705 134.137C125.557 133.918 125.369 133.746 125.143 133.621C124.92 133.496 124.658 133.434 124.357 133.434C124.061 133.434 123.799 133.496 123.572 133.621C123.35 133.746 123.162 133.918 123.01 134.137C122.861 134.352 122.75 134.6 122.676 134.881C122.602 135.158 122.564 135.453 122.564 135.766ZM69.9883 150.51V144.469H71.1133V150.51C71.1133 151.072 70.998 151.547 70.7676 151.934C70.5371 152.32 70.2188 152.615 69.8125 152.818C69.4102 153.018 68.9473 153.117 68.4238 153.117C67.9004 153.117 67.4355 153.027 67.0293 152.848C66.623 152.668 66.3047 152.395 66.0742 152.027C65.8438 151.66 65.7285 151.197 65.7285 150.639H66.8594C66.8594 150.998 66.9258 151.293 67.0586 151.523C67.1914 151.754 67.375 151.924 67.6094 152.033C67.8477 152.143 68.1191 152.197 68.4238 152.197C68.7207 152.197 68.9863 152.135 69.2207 152.01C69.459 151.881 69.6465 151.691 69.7832 151.441C69.9199 151.188 69.9883 150.877 69.9883 150.51ZM76.0586 145.225L73.2344 153H72.0801L75.332 144.469H76.0762L76.0586 145.225ZM78.4258 153L75.5957 145.225L75.5781 144.469H76.3223L79.5859 153H78.4258ZM78.2793 149.842V150.768H73.4863V149.842H78.2793ZM82.9668 151.705L85.4805 144.469H86.7051L83.5469 153H82.6738L82.9668 151.705ZM80.6172 144.469L83.1074 151.705L83.418 153H82.5449L79.3926 144.469H80.6172ZM90.5664 145.225L87.7422 153H86.5879L89.8398 144.469H90.584L90.5664 145.225ZM92.9336 153L90.1035 145.225L90.0859 144.469H90.8301L94.0938 153H92.9336ZM92.7871 149.842V150.768H87.9941V149.842H92.7871ZM99.7832 150.844C99.7832 150.645 99.752 150.469 99.6895 150.316C99.6309 150.16 99.5254 150.02 99.373 149.895C99.2246 149.77 99.0176 149.65 98.752 149.537C98.4902 149.424 98.1582 149.309 97.7559 149.191C97.334 149.066 96.9531 148.928 96.6133 148.775C96.2734 148.619 95.9824 148.441 95.7402 148.242C95.498 148.043 95.3125 147.814 95.1836 147.557C95.0547 147.299 94.9902 147.004 94.9902 146.672C94.9902 146.34 95.0586 146.033 95.1953 145.752C95.332 145.471 95.5273 145.227 95.7812 145.02C96.0391 144.809 96.3457 144.645 96.7012 144.527C97.0566 144.41 97.4531 144.352 97.8906 144.352C98.5312 144.352 99.0742 144.475 99.5195 144.721C99.9688 144.963 100.311 145.281 100.545 145.676C100.779 146.066 100.896 146.484 100.896 146.93H99.7715C99.7715 146.609 99.7031 146.326 99.5664 146.08C99.4297 145.83 99.2227 145.635 98.9453 145.494C98.668 145.35 98.3164 145.277 97.8906 145.277C97.4883 145.277 97.1562 145.338 96.8945 145.459C96.6328 145.58 96.4375 145.744 96.3086 145.951C96.1836 146.158 96.1211 146.395 96.1211 146.66C96.1211 146.84 96.1582 147.004 96.2324 147.152C96.3105 147.297 96.4297 147.432 96.5898 147.557C96.7539 147.682 96.9609 147.797 97.2109 147.902C97.4648 148.008 97.7676 148.109 98.1191 148.207C98.6035 148.344 99.0215 148.496 99.373 148.664C99.7246 148.832 100.014 149.021 100.24 149.232C100.471 149.439 100.641 149.676 100.75 149.941C100.863 150.203 100.92 150.5 100.92 150.832C100.92 151.18 100.85 151.494 100.709 151.775C100.568 152.057 100.367 152.297 100.105 152.496C99.8438 152.695 99.5293 152.85 99.1621 152.959C98.7988 153.064 98.3926 153.117 97.9434 153.117C97.5488 153.117 97.1602 153.062 96.7773 152.953C96.3984 152.844 96.0527 152.68 95.7402 152.461C95.4316 152.242 95.1836 151.973 94.9961 151.652C94.8125 151.328 94.7207 150.953 94.7207 150.527H95.8457C95.8457 150.82 95.9023 151.072 96.0156 151.283C96.1289 151.49 96.2832 151.662 96.4785 151.799C96.6777 151.936 96.9023 152.037 97.1523 152.104C97.4062 152.166 97.6699 152.197 97.9434 152.197C98.3379 152.197 98.6719 152.143 98.9453 152.033C99.2188 151.924 99.4258 151.768 99.5664 151.564C99.7109 151.361 99.7832 151.121 99.7832 150.844ZM107.512 150.287H108.637C108.578 150.826 108.424 151.309 108.174 151.734C107.924 152.16 107.57 152.498 107.113 152.748C106.656 152.994 106.086 153.117 105.402 153.117C104.902 153.117 104.447 153.023 104.037 152.836C103.631 152.648 103.281 152.383 102.988 152.039C102.695 151.691 102.469 151.275 102.309 150.791C102.152 150.303 102.074 149.76 102.074 149.162V148.312C102.074 147.715 102.152 147.174 102.309 146.689C102.469 146.201 102.697 145.783 102.994 145.436C103.295 145.088 103.656 144.82 104.078 144.633C104.5 144.445 104.975 144.352 105.502 144.352C106.146 144.352 106.691 144.473 107.137 144.715C107.582 144.957 107.928 145.293 108.174 145.723C108.424 146.148 108.578 146.643 108.637 147.205H107.512C107.457 146.807 107.355 146.465 107.207 146.18C107.059 145.891 106.848 145.668 106.574 145.512C106.301 145.355 105.943 145.277 105.502 145.277C105.123 145.277 104.789 145.35 104.5 145.494C104.215 145.639 103.975 145.844 103.779 146.109C103.588 146.375 103.443 146.693 103.346 147.064C103.248 147.436 103.199 147.848 103.199 148.301V149.162C103.199 149.58 103.242 149.973 103.328 150.34C103.418 150.707 103.553 151.029 103.732 151.307C103.912 151.584 104.141 151.803 104.418 151.963C104.695 152.119 105.023 152.197 105.402 152.197C105.883 152.197 106.266 152.121 106.551 151.969C106.836 151.816 107.051 151.598 107.195 151.312C107.344 151.027 107.449 150.686 107.512 150.287ZM110.178 144.469H113.002C113.643 144.469 114.184 144.566 114.625 144.762C115.07 144.957 115.408 145.246 115.639 145.629C115.873 146.008 115.99 146.475 115.99 147.029C115.99 147.42 115.91 147.777 115.75 148.102C115.594 148.422 115.367 148.695 115.07 148.922C114.777 149.145 114.426 149.311 114.016 149.42L113.699 149.543H111.045L111.033 148.623H113.037C113.443 148.623 113.781 148.553 114.051 148.412C114.32 148.268 114.523 148.074 114.66 147.832C114.797 147.59 114.865 147.322 114.865 147.029C114.865 146.701 114.801 146.414 114.672 146.168C114.543 145.922 114.34 145.732 114.062 145.6C113.789 145.463 113.436 145.395 113.002 145.395H111.309V153H110.178V144.469ZM115.164 153L113.09 149.133L114.268 149.127L116.371 152.93V153H115.164ZM118.785 144.469V153H117.654V144.469H118.785ZM123.988 149.654H121.709V148.734H123.988C124.43 148.734 124.787 148.664 125.061 148.523C125.334 148.383 125.533 148.188 125.658 147.938C125.787 147.688 125.852 147.402 125.852 147.082C125.852 146.789 125.787 146.514 125.658 146.256C125.533 145.998 125.334 145.791 125.061 145.635C124.787 145.475 124.43 145.395 123.988 145.395H121.973V153H120.842V144.469H123.988C124.633 144.469 125.178 144.58 125.623 144.803C126.068 145.025 126.406 145.334 126.637 145.729C126.867 146.119 126.982 146.566 126.982 147.07C126.982 147.617 126.867 148.084 126.637 148.471C126.406 148.857 126.068 149.152 125.623 149.355C125.178 149.555 124.633 149.654 123.988 149.654ZM131.564 144.469V153H130.451V144.469H131.564ZM134.307 144.469V145.395H127.715V144.469H134.307Z" fill="black"/>
<path d="M75.4873 168.392L72.0068 179H69.2031L73.958 166.203H75.7422L75.4873 168.392ZM78.3789 179L74.8896 168.392L74.6084 166.203H76.4102L81.1914 179H78.3789ZM78.2207 174.236V176.302H71.4619V174.236H78.2207ZM86.7197 169.49V171.283H81.1826V169.49H86.7197ZM82.5537 167.144H85.085V176.135C85.085 176.41 85.1201 176.621 85.1904 176.768C85.2666 176.914 85.3779 177.017 85.5244 177.075C85.6709 177.128 85.8555 177.154 86.0781 177.154C86.2363 177.154 86.377 177.148 86.5 177.137C86.6289 177.119 86.7373 177.102 86.8252 177.084L86.834 178.947C86.6172 179.018 86.3828 179.073 86.1309 179.114C85.8789 179.155 85.6006 179.176 85.2959 179.176C84.7393 179.176 84.2529 179.085 83.8369 178.903C83.4268 178.716 83.1104 178.417 82.8877 178.007C82.665 177.597 82.5537 177.058 82.5537 176.39V167.144ZM90.833 169.49V179H88.293V169.49H90.833ZM88.1348 167.012C88.1348 166.643 88.2637 166.338 88.5215 166.098C88.7793 165.857 89.125 165.737 89.5586 165.737C89.9863 165.737 90.3291 165.857 90.5869 166.098C90.8506 166.338 90.9824 166.643 90.9824 167.012C90.9824 167.381 90.8506 167.686 90.5869 167.926C90.3291 168.166 89.9863 168.286 89.5586 168.286C89.125 168.286 88.7793 168.166 88.5215 167.926C88.2637 167.686 88.1348 167.381 88.1348 167.012ZM96.1592 177.154L98.2686 169.49H100.914L97.7061 179H96.1064L96.1592 177.154ZM94.709 169.49L96.8271 177.163L96.8711 179H95.2627L92.0547 169.49H94.709ZM107.04 176.855V172.619C107.04 172.314 106.99 172.054 106.891 171.837C106.791 171.614 106.636 171.441 106.425 171.318C106.22 171.195 105.953 171.134 105.625 171.134C105.344 171.134 105.101 171.184 104.896 171.283C104.69 171.377 104.532 171.515 104.421 171.696C104.31 171.872 104.254 172.08 104.254 172.32H101.723C101.723 171.916 101.816 171.532 102.004 171.169C102.191 170.806 102.464 170.486 102.821 170.211C103.179 169.93 103.604 169.71 104.096 169.552C104.594 169.394 105.15 169.314 105.766 169.314C106.504 169.314 107.16 169.438 107.734 169.684C108.309 169.93 108.76 170.299 109.088 170.791C109.422 171.283 109.589 171.898 109.589 172.637V176.706C109.589 177.228 109.621 177.655 109.686 177.989C109.75 178.317 109.844 178.604 109.967 178.851V179H107.409C107.286 178.742 107.192 178.42 107.128 178.033C107.069 177.641 107.04 177.248 107.04 176.855ZM107.374 173.208L107.392 174.641H105.977C105.643 174.641 105.353 174.679 105.106 174.755C104.86 174.831 104.658 174.939 104.5 175.08C104.342 175.215 104.225 175.373 104.148 175.555C104.078 175.736 104.043 175.936 104.043 176.152C104.043 176.369 104.093 176.565 104.192 176.741C104.292 176.911 104.436 177.046 104.623 177.146C104.811 177.239 105.03 177.286 105.282 177.286C105.663 177.286 105.994 177.21 106.275 177.058C106.557 176.905 106.773 176.718 106.926 176.495C107.084 176.272 107.166 176.062 107.172 175.862L107.84 176.935C107.746 177.175 107.617 177.424 107.453 177.682C107.295 177.939 107.093 178.183 106.847 178.411C106.601 178.634 106.305 178.818 105.959 178.965C105.613 179.105 105.203 179.176 104.729 179.176C104.125 179.176 103.577 179.056 103.085 178.815C102.599 178.569 102.212 178.232 101.925 177.805C101.644 177.371 101.503 176.879 101.503 176.328C101.503 175.83 101.597 175.388 101.784 175.001C101.972 174.614 102.247 174.289 102.61 174.025C102.979 173.756 103.439 173.554 103.99 173.419C104.541 173.278 105.18 173.208 105.906 173.208H107.374ZM117.156 176.926V165.5H119.705V179H117.411L117.156 176.926ZM111.145 174.359V174.175C111.145 173.448 111.227 172.789 111.391 172.197C111.555 171.6 111.795 171.087 112.111 170.659C112.428 170.231 112.817 169.9 113.28 169.666C113.743 169.432 114.271 169.314 114.862 169.314C115.419 169.314 115.905 169.432 116.321 169.666C116.743 169.9 117.101 170.234 117.394 170.668C117.692 171.096 117.933 171.603 118.114 172.188C118.296 172.769 118.428 173.404 118.51 174.096V174.5C118.428 175.162 118.296 175.777 118.114 176.346C117.933 176.914 117.692 177.412 117.394 177.84C117.101 178.262 116.743 178.59 116.321 178.824C115.899 179.059 115.407 179.176 114.845 179.176C114.253 179.176 113.726 179.056 113.263 178.815C112.806 178.575 112.419 178.238 112.103 177.805C111.792 177.371 111.555 176.861 111.391 176.275C111.227 175.689 111.145 175.051 111.145 174.359ZM113.676 174.175V174.359C113.676 174.752 113.705 175.118 113.764 175.458C113.828 175.798 113.931 176.1 114.071 176.363C114.218 176.621 114.405 176.823 114.634 176.97C114.868 177.11 115.152 177.181 115.486 177.181C115.92 177.181 116.277 177.084 116.559 176.891C116.84 176.691 117.054 176.419 117.2 176.073C117.353 175.728 117.44 175.329 117.464 174.878V173.727C117.446 173.357 117.394 173.026 117.306 172.733C117.224 172.435 117.101 172.18 116.937 171.969C116.778 171.758 116.579 171.594 116.339 171.477C116.104 171.359 115.826 171.301 115.504 171.301C115.176 171.301 114.895 171.377 114.66 171.529C114.426 171.676 114.235 171.878 114.089 172.136C113.948 172.394 113.843 172.698 113.772 173.05C113.708 173.396 113.676 173.771 113.676 174.175ZM121.278 174.342V174.157C121.278 173.46 121.378 172.818 121.577 172.232C121.776 171.641 122.066 171.128 122.447 170.694C122.828 170.261 123.297 169.924 123.854 169.684C124.41 169.438 125.049 169.314 125.77 169.314C126.49 169.314 127.132 169.438 127.694 169.684C128.257 169.924 128.729 170.261 129.109 170.694C129.496 171.128 129.789 171.641 129.988 172.232C130.188 172.818 130.287 173.46 130.287 174.157V174.342C130.287 175.033 130.188 175.675 129.988 176.267C129.789 176.853 129.496 177.365 129.109 177.805C128.729 178.238 128.26 178.575 127.703 178.815C127.146 179.056 126.508 179.176 125.787 179.176C125.066 179.176 124.425 179.056 123.862 178.815C123.306 178.575 122.834 178.238 122.447 177.805C122.066 177.365 121.776 176.853 121.577 176.267C121.378 175.675 121.278 175.033 121.278 174.342ZM123.81 174.157V174.342C123.81 174.74 123.845 175.112 123.915 175.458C123.985 175.804 124.097 176.108 124.249 176.372C124.407 176.63 124.612 176.832 124.864 176.979C125.116 177.125 125.424 177.198 125.787 177.198C126.139 177.198 126.44 177.125 126.692 176.979C126.944 176.832 127.146 176.63 127.299 176.372C127.451 176.108 127.562 175.804 127.633 175.458C127.709 175.112 127.747 174.74 127.747 174.342V174.157C127.747 173.771 127.709 173.407 127.633 173.067C127.562 172.722 127.448 172.417 127.29 172.153C127.138 171.884 126.936 171.673 126.684 171.521C126.432 171.368 126.127 171.292 125.77 171.292C125.412 171.292 125.107 171.368 124.855 171.521C124.609 171.673 124.407 171.884 124.249 172.153C124.097 172.417 123.985 172.722 123.915 173.067C123.845 173.407 123.81 173.771 123.81 174.157Z" fill="#00FF19"/>
</svg>
