<svg width="20" height="20" viewBox="0 0 20 20" fill="none" xmlns="http://www.w3.org/2000/svg">
<g clip-path="url(#clip0_2_2)">
<path fill-rule="evenodd" clip-rule="evenodd" d="M9.40915 10.0009C9.40915 10.277 9.63301 10.5009 9.90915 10.5009C10.1853 10.5009 10.4091 10.277 10.4091 10.0009V0.49913C10.4091 0.222988 10.1853 -0.000869751 9.90915 -0.000869751C9.63301 -0.000869751 9.40915 0.222988 9.40915 0.49913V10.0009ZM1.15847 11.5667C0.761103 9.47711 1.11665 7.31433 2.16204 5.46194C3.20744 3.60955 4.87512 2.18728 6.8693 1.44738C7.1282 1.35132 7.2602 1.06357 7.16414 0.804677C7.06809 0.545779 6.78034 0.413772 6.52144 0.50983C4.30569 1.33194 2.45271 2.91225 1.29116 4.97046C0.129605 7.02867 -0.265444 9.43176 0.176078 11.7535C0.617599 14.0752 1.86715 16.1656 3.70312 17.6538C5.53908 19.1419 7.84278 19.9318 10.2056 19.8832C12.5685 19.8346 14.8378 18.9507 16.611 17.3883C18.3842 15.8259 19.5468 13.686 19.8925 11.348C20.2382 9.01009 19.7446 6.62527 18.4994 4.61656C17.2543 2.60784 15.3379 1.10505 13.0902 0.374738C12.8276 0.289406 12.5455 0.433131 12.4602 0.695758C12.3748 0.958385 12.5185 1.24046 12.7812 1.32579C14.8041 1.98308 16.5288 3.33559 17.6495 5.14343C18.7702 6.95127 19.2143 9.09761 18.9032 11.2017C18.5921 13.3059 17.5458 15.2318 15.9499 16.638C14.354 18.0442 12.3116 18.8397 10.1851 18.8834C8.05851 18.9271 5.98517 18.2163 4.33281 16.8769C2.68044 15.5376 1.55584 13.6563 1.15847 11.5667Z" fill="black"/>
</g>
<defs>
<clipPath id="clip0_2_2">
<rect width="20" height="20" fill="white"/>
</clipPath>
</defs>
</svg>
